# xmcd
#
# Track frame offsets:
#	150
#	14780
#	27680
#	44512
#	55877
#	67770
#	82122
#	93855
#	106065
#	118242
#	132375
#	146230
#
# Disc length: 2167 seconds
#
# Revision: 0
# Processed by: cddbd v1.4PL0 Copyright (c) Steve Scherf et al.
# Submitted via: dBpowerAMP V4.0
#
DISCID=b008750c
DTITLE=Peão Carreiro e Zé Paulo - Os Diplomatas
DYEAR=1900
DGENRE=
TTITLE0=Peão Carreiro e Zé Paulo Para que saudades
TTITLE1=Peão Carreiro e Zé Paulo Chore em meus braços
TTITLE2=Peão Carreiro e Zé Paulo Portas do mundo
TTITLE3=Peão Carreiro e Zé Paulo Paixão de mulher
TTITLE4=Peão Carreiro e Zé Paulo Onda perdida
TTITLE5=Peão Carreiro e Zé Paulo O repique do berrante
TTITLE6=Peão Carreiro e Zé Paulo Chá de cama
TTITLE7=Peão Carreiro e Zé Paulo Despreso
TTITLE8=Peão Carreiro e Zé Paulo Amor em segredo
TTITLE9=Peão Carreiro e Zé Paulo Esperança morta
TTITLE10=Peão Carreiro e Zé Paulo Peão de rodeio
TTITLE11=Peão Carreiro e Zé Paulo Meu Deus
EXTD=
EXTT0=
EXTT1=
EXTT2=
EXTT3=
EXTT4=
EXTT5=
EXTT6=
EXTT7=
EXTT8=
EXTT9=
EXTT10=
EXTT11=
PLAYORDER=
